<?xml version="1.0" standalone="no"?>
<!DOCTYPE svg PUBLIC "-//W3C//DTD SVG 20010904//EN"
 "http://www.w3.org/TR/2001/REC-SVG-20010904/DTD/svg10.dtd">
<svg version="1.0" xmlns="http://www.w3.org/2000/svg"
 width="236.000000pt" height="236.000000pt" viewBox="0 0 236.000000 236.000000"
 preserveAspectRatio="xMidYMid meet">
<metadata>
Created by potrace 1.16, written by Peter Selinger 2001-2019
</metadata>
<g transform="translate(0.000000,236.000000) scale(0.100000,-0.100000)"
fill="#000000" stroke="none">
<path d="M1221 2042 c-114 -77 -165 -228 -178 -522 -3 -80 -9 -154 -13 -165
-5 -14 -28 -25 -91 -41 l-84 -21 -32 30 c-44 41 -128 49 -194 19 -106 -47
-193 -147 -218 -249 -11 -42 -14 -46 -25 -31 -7 10 -16 15 -19 12 -3 -3 -15
-1 -26 6 -17 8 -21 8 -21 -3 0 -8 -7 -20 -15 -27 -8 -7 -15 -16 -15 -21 0 -15
82 -99 96 -99 8 0 14 -4 14 -10 0 -6 -10 -5 -25 2 -14 6 -25 15 -25 19 0 17
-57 27 -87 14 -43 -18 -48 -49 -12 -79 29 -24 48 -25 76 -4 7 6 15 3 22 -9 10
-17 10 -16 11 3 0 18 17 34 35 34 2 0 12 -30 24 -67 28 -90 36 -103 45 -67 4
16 13 32 19 36 19 12 65 9 71 -4 3 -7 3 -1 0 13 -5 26 11 52 38 61 9 3 8 19
-5 64 -10 34 -17 96 -17 141 0 108 33 176 102 213 46 24 47 24 83 7 l37 -18
-33 -22 c-70 -47 -103 -142 -63 -181 55 -55 173 38 174 136 0 29 21 39 118 54
49 8 48 15 31 -134 -13 -126 -33 -212 -65 -289 -21 -52 -30 -62 -52 -65 -23
-3 -27 -7 -25 -31 2 -23 -4 -31 -30 -42 -35 -15 -58 -48 -54 -80 1 -11 -3 -19
-10 -18 -6 1 -14 -4 -17 -13 -5 -12 -2 -13 17 -3 12 7 28 20 35 31 7 10 20 18
29 18 9 0 27 10 40 22 l23 22 16 -22 c19 -27 28 -28 55 -1 19 19 20 22 3 46
-16 25 -16 26 2 18 45 -19 62 -17 78 8 20 30 12 56 -24 71 l-27 11 23 90 c21
81 30 144 49 327 l6 57 47 9 c120 26 173 34 178 29 3 -3 8 -24 11 -47 6 -41 6
-42 39 -35 21 3 34 2 34 -5 0 -5 -4 -10 -10 -10 -18 0 -10 -25 13 -39 22 -14
22 -14 3 8 -11 11 -14 21 -8 21 7 0 12 14 12 31 0 25 6 32 37 45 33 14 38 14
49 0 14 -20 28 -21 21 -1 -4 8 -1 18 6 22 7 4 1 11 -18 19 -19 8 -23 13 -12
14 9 0 17 6 17 14 0 9 25 23 63 35 109 37 166 86 152 131 -9 28 -43 26 -55 -4
-5 -14 -19 -31 -32 -39 -26 -17 -127 -51 -133 -45 -2 2 -13 80 -25 173 -33
271 -67 388 -126 434 -37 29 -83 27 -133 -7z m3 -124 c15 -23 58 -220 71 -327
6 -40 4 -52 -5 -46 -8 5 -7 0 2 -15 11 -18 11 -22 -4 -31 -25 -14 -24 -53 1
-46 15 4 20 -2 23 -25 3 -16 1 -31 -2 -33 -6 -4 -207 -45 -219 -45 -7 0 10
233 25 342 16 118 34 186 58 223 20 31 31 31 50 3z"/>
<path d="M1431 1185 c-1 -12 -6 -26 -12 -32 -11 -11 10 -65 31 -78 17 -11 11
-61 -11 -89 -21 -27 -59 -36 -59 -13 0 7 -3 8 -8 2 -4 -6 -26 -23 -49 -38 -48
-31 -54 -40 -20 -33 72 16 72 16 69 -44 -1 -30 2 -62 9 -70 8 -12 9 -8 4 15
-12 57 12 11 35 -65 41 -139 95 -218 180 -264 61 -33 160 -45 227 -27 58 16
137 71 141 99 4 26 -22 30 -52 7 -25 -19 -89 -19 -125 0 -77 39 -175 197 -208
334 -15 62 -20 71 -39 71 -40 0 -54 11 -65 53 -8 32 -8 42 3 48 48 28 50 32
31 69 -13 26 -24 35 -41 34 -16 -1 -27 6 -32 20 -9 21 -9 21 -9 1z"/>
<path d="M609 798 c-19 -18 -37 -32 -41 -33 -5 0 -7 -4 -5 -8 1 -5 -6 -13 -15
-18 -10 -6 -18 -14 -18 -18 0 -15 37 -51 45 -43 5 4 5 -1 2 -10 -4 -10 -2 -18
3 -18 6 0 19 -9 29 -19 19 -19 20 -19 75 1 30 11 54 23 54 27 -1 3 6 21 16 40
18 33 18 35 0 48 -10 7 -24 13 -31 13 -7 0 -13 5 -13 12 0 13 -47 58 -60 58
-5 0 -23 -14 -41 -32z"/>
</g>
</svg>
